<?xml version="1.0" encoding="UTF-8"?>
<svg version="1.1" xmlns="http://www.w3.org/2000/svg" width="1127" height="205">
<path d="M0 0 C42.09041276 -0.27139753 84.18061518 -0.4861798 126.27172978 -0.61278395 C131.24332913 -0.62779205 136.21492672 -0.64332396 141.18652344 -0.65917969 C142.17625982 -0.66232741 143.1659962 -0.66547514 144.18572459 -0.66871825 C160.20194537 -0.72090426 176.21764818 -0.81550191 192.2335619 -0.92583355 C208.67300793 -1.03813654 225.11218308 -1.10472298 241.55199695 -1.12906194 C251.69286587 -1.14551061 261.83227067 -1.19741691 271.97268876 -1.2949976 C278.93073909 -1.3585351 285.88803494 -1.37757819 292.84635416 -1.36201653 C296.85887214 -1.35434515 300.86883635 -1.36591824 304.88089752 -1.4304657 C331.4758505 -1.83763868 331.4758505 -1.83763868 338.29370189 4.20204043 C340.54991952 6.65820354 342.26300906 9.1462141 344 12 C344.98630053 13.27237119 345.97416477 14.54353493 346.96484375 15.8125 C356.58783237 31.36172518 362.91930518 46.58792249 358.875 65.0625 C355.24816737 77.8562353 346.97653048 89.37311497 336 97 C336.90621094 97.6290625 337.81242187 98.258125 338.74609375 98.90625 C354.48964115 109.91958588 368.14891196 121.15009652 372 141 C373.48653225 153.3555927 368.72312154 164.44569419 361.25 174.0625 C352.88429015 184.026852 342.79764646 194.10117677 331 200 C329.31478185 200.09300842 327.62586181 200.121919 325.93807983 200.12025452 C324.86673294 200.12162918 323.79538605 200.12300385 322.6915741 200.12442017 C321.51122086 200.12082489 320.33086761 200.11722961 319.11474609 200.11352539 C317.87575058 200.11367142 316.63675507 200.11381744 315.36021423 200.1139679 C311.95752498 200.11338953 308.55489597 200.10836527 305.15221739 200.10139394 C301.59811295 200.09515368 298.04400775 200.09455607 294.48989868 200.09336853 C287.75738213 200.0902572 281.02488176 200.08204648 274.29237235 200.07201904 C266.6286288 200.06085176 258.96488448 200.0553459 251.30113482 200.05032361 C235.5340805 200.03986371 219.76704234 200.02226809 204 200 C203.92998932 182.95428443 203.8770509 165.90861359 203.84456348 148.86278725 C203.8290796 140.94851507 203.80796118 133.03433211 203.77368164 125.12011719 C203.74382566 118.22390891 203.72443607 111.32776522 203.71773452 104.43149412 C203.71381576 100.7782901 203.70457497 97.12527091 203.68280983 93.47212601 C203.65873713 89.3988136 203.65802754 85.32582466 203.65942383 81.25244141 C203.648638 80.03468521 203.63785217 78.81692902 203.6267395 77.56227112 C203.63086349 76.45726761 203.63498749 75.3522641 203.63923645 74.21377563 C203.63647107 73.24958017 203.63370569 72.28538471 203.63085651 71.29197121 C203.75267386 70.53562071 203.87449121 69.77927021 204 69 C204.99 68.34 205.98 67.68 207 67 C208 68 208 68 208.12304783 70.12207127 C208.12212604 71.06506549 208.12120424 72.00805971 208.12025452 72.97962952 C208.12231651 74.59720909 208.12231651 74.59720909 208.12442017 76.24746704 C208.12082489 77.4407663 208.11722961 78.63406555 208.11352539 79.86352539 C208.11367142 81.11212845 208.11381744 82.36073151 208.1139679 83.64717102 C208.11338891 87.08090994 208.10835955 90.51458938 208.10139394 93.94831777 C208.09515998 97.53312459 208.09455657 101.11793213 208.09336853 104.70274353 C208.09025534 111.49550045 208.08204212 118.28824135 208.07201904 125.08099121 C208.06085753 132.81242494 208.05534736 140.54385942 208.05032361 148.27529919 C208.03985949 164.18354208 208.02226029 180.09176898 208 196 C223.69980338 196.07986988 239.39880342 196.10784661 255.09872818 196.07515812 C262.38965995 196.06116904 269.67986349 196.06374011 276.97070312 196.10620117 C283.33039113 196.1431963 289.68919086 196.148198 296.04891753 196.11582941 C299.41270579 196.09979873 302.77345982 196.10384891 306.13733673 196.13676643 C324.46633488 196.91715605 324.46633488 196.91715605 339.83563232 188.37571716 C340.54987366 187.5917305 341.26411499 186.80774384 342 186 C343.75908642 184.46559467 345.52861207 182.94299945 347.3125 181.4375 C348.88827444 179.97248287 350.45186407 178.49419391 352 177 C352.63679688 176.38898438 353.27359375 175.77796875 353.9296875 175.1484375 C361.99436446 166.72533046 367.45275678 155.25662005 367.27734375 143.5234375 C365.77224534 129.82916178 356.2286067 118.49265726 346 110 C340.35915811 105.83386806 334.33984459 102.00636365 328 99 C329.47864442 95.31151337 331.44334018 93.6898299 334.625 91.375 C344.75717606 83.47979788 353.28949684 72.05137339 355 59 C356.57355398 42.22349374 349.36941727 28.12702268 339.57421875 15.0546875 C338.72472656 14.04664063 337.87523437 13.03859375 337 12 C336.49384596 11.33565948 335.98769192 10.67131897 335.46619987 9.98684692 C332.65731126 6.67830671 330.40853735 4.36422224 326.13060379 3.25802612 C322.63160109 2.97506208 319.20990757 2.94510457 315.69970703 3 C314.35221892 2.99237213 313.00474692 2.98123581 311.65731335 2.96691227 C307.96928845 2.9377893 304.28296956 2.95820213 300.59500337 2.98693204 C296.61274334 3.00919809 292.63072605 2.98520756 288.64848328 2.96690369 C281.75397905 2.94151272 274.85998818 2.9452714 267.96548462 2.96896362 C257.99736261 3.00317566 248.0296674 2.99321676 238.06152594 2.97256029 C221.8881161 2.94024075 205.71491794 2.94352436 189.54150391 2.96923828 C173.83280379 2.99413702 158.12424268 3.00224285 142.41552734 2.98779297 C141.44685557 2.98690776 140.47818379 2.98602255 139.48015833 2.98511052 C134.62049995 2.98056608 129.76084197 2.9756918 124.90118408 2.97065353 C84.60071082 2.92929844 44.30045288 2.94793947 4 3 C4 18.51 4 34.02 4 50 C8.95 49.01 13.9 48.02 19 47 C62.60794044 40.60487053 118.60277606 38.15666164 156.2890625 64.8984375 C160.76567024 68.36877606 164.95334422 72.03809094 169 76 C169.62519531 76.58910156 170.25039062 77.17820312 170.89453125 77.78515625 C185.41031789 92.69414704 188.42245255 113.19674026 188.21484375 132.98828125 C187.82045822 148.77595033 182.83754275 163.59614175 173 176 C172.48953125 176.68578125 171.9790625 177.3715625 171.453125 178.078125 C157.81144696 195.23152214 134.40020677 202.39110686 113.44775391 204.80810547 C80.03555494 207.4274939 42.84699072 202.94080061 16.05859375 180.87109375 C8.5014109 174.00223116 2.1802591 166.20100576 0 156 C-0.06926968 153.24029592 -0.0941736 150.50803958 -0.0625 147.75 C-0.05798828 147.00492188 -0.05347656 146.25984375 -0.04882812 145.4921875 C-0.03709246 143.6614236 -0.0191585 141.83070127 0 140 C1.32 140.33 2.64 140.66 4 141 C3.95875 142.299375 3.9175 143.59875 3.875 144.9375 C3.9426997 155.78637629 7.59506149 165.52643433 15 173.625 C35.94041659 192.65761291 66.73899468 200.2234348 94.3125 200.25 C95.03208893 200.25100708 95.75167786 200.25201416 96.49307251 200.25305176 C107.28510516 200.24281535 117.50730231 199.74133543 128 197 C129.1240625 196.7215625 130.248125 196.443125 131.40625 196.15625 C149.231768 191.23301169 164.26183055 181.94124999 174 166 C183.62577684 148.98759761 186.02324345 127.42477882 181.9375 108.375 C178.65405303 97.90804932 173.27223299 88.19569114 166 80 C165.50371094 79.41089844 165.00742188 78.82179688 164.49609375 78.21484375 C150.82221609 63.17015129 129.28796595 56.07007801 110 52 C109.23703613 51.83483887 108.47407227 51.66967773 107.68798828 51.49951172 C75.16820083 44.84976876 38.09046427 47.73115328 5.84375 54.44921875 C3 55 3 55 0 55 C0 36.85 0 18.7 0 0 Z " fill="#00652E" transform="translate(0,0)"/>
<path d="M0 0 C40.19652341 -0.27138019 80.39280559 -0.4861703 120.59006106 -0.61278395 C125.33763013 -0.62779211 130.08519736 -0.64332401 134.83276367 -0.65917969 C135.77790314 -0.66232741 136.72304261 -0.66547514 137.69682267 -0.66871825 C152.99271419 -0.72090871 168.28806352 -0.81550871 183.58363358 -0.92583355 C199.28291514 -1.03812436 214.9819131 -1.10472036 230.68157977 -1.12906194 C240.36644586 -1.14551323 250.04977941 -1.19743298 259.73417362 -1.2949976 C266.37872151 -1.35852022 273.02247931 -1.37758167 279.66730867 -1.36201653 C283.499501 -1.35434263 287.32901974 -1.3659442 291.16073418 -1.4304657 C316.56651921 -1.83712079 316.56651921 -1.83712079 322.76347893 4.07386661 C324.85069058 6.5504927 326.43480653 9.16943094 328 12 C328.76818187 13.14457069 329.54910193 14.28069277 330.34238911 15.40800858 C338.61473151 27.36966199 341.42315703 39.72441458 340 54 C337.35529414 66.59756342 327.55908418 77.96061055 317 85 C316.17962648 88.08622099 316.27576762 90.89895628 317 94 C319.35376458 96.17691069 321.00327631 97.35173036 323.75 98.8125 C337.14386559 106.87044288 347.68972929 117.15905977 351.7109375 132.7578125 C353.18956112 143.23961108 349.80638583 152.38095742 344 161 C337.47662295 169.42258809 329.65826321 175.9176552 321 182 C320.33539261 182.53115921 319.67078522 183.06231842 318.98603821 183.60957336 C314.46338819 185.71551194 310.17201079 185.39264225 305.24291992 185.34057617 C304.14206464 185.34093778 303.04120935 185.34129938 301.90699482 185.34167194 C298.34796701 185.339435 294.78941211 185.31659882 291.23046875 185.29296875 C289.03145576 185.28855724 286.83243962 185.28549711 284.63342285 185.28381348 C276.48473382 185.26809253 268.33611225 185.22620885 260.1875 185.1875 C232.8696875 185.0946875 232.8696875 185.0946875 205 185 C205 145.4 205 105.8 205 65 C205.66 65 206.32 65 207 65 C207 103.61 207 142.22 207 182 C233.5753125 182.061875 233.5753125 182.061875 260.6875 182.125 C269.04582153 182.18324951 269.04582153 182.18324951 277.57299805 182.24267578 C282.61432658 182.22949223 282.61432658 182.22949223 287.65559387 182.20309448 C289.88255372 182.19773097 292.10961687 182.21183223 294.33638 182.24191284 C312.05995851 182.52336985 312.05995851 182.52336985 326.6118927 173.48727417 C327.39996811 172.66647369 328.18804352 171.84567322 329 171 C330.44363584 169.81519505 331.89876953 168.64393655 333.375 167.5 C340.89119005 160.72908617 346.96844008 151.4123429 348.37890625 141.27734375 C348.83250502 130.87383654 344.71631855 122.69515421 338 115 C337.36320312 114.26910156 336.72640625 113.53820312 336.0703125 112.78515625 C329.71915714 105.98034693 322.30861298 101.15430649 314 97 C313.23365869 92.13940928 313.01885626 87.84130019 314 83 C316.69109585 79.6126365 319.58061745 77.13067102 322.9453125 74.453125 C330.07281782 68.72924605 334.14669751 61.17767496 336.75 52.5 C336.8325 51.675 336.915 50.85 337 50 C337.06316406 49.3915625 337.12632812 48.783125 337.19140625 48.15625 C338.10411137 31.90421047 328.4953313 18.16580392 318.29296875 6.5546875 C316.02905478 3.56434315 316.02905478 3.56434315 312.86883634 2.86938947 C311.91839636 2.86673143 310.96795637 2.86407339 309.98871517 2.8613348 C308.35027438 2.85312313 308.35027438 2.85312313 306.67873377 2.84474558 C304.8563028 2.84327842 304.8563028 2.84327842 302.99705505 2.84178162 C301.71804874 2.83684364 300.43904243 2.83190566 299.12127835 2.82681805 C295.55484834 2.81318352 291.98842791 2.8058033 288.42197859 2.79939139 C284.58213968 2.79141067 280.74232085 2.77770494 276.90249634 2.76467896 C270.24431929 2.74288304 263.58614025 2.72475 256.92794609 2.70907402 C247.30120329 2.68640368 237.6744827 2.65825698 228.04775871 2.62875474 C212.43069333 2.58104397 196.81361889 2.53778927 181.1965332 2.49731445 C166.02204686 2.45797723 150.84756858 2.41655529 135.6730957 2.37231445 C134.73842881 2.36959018 133.80376192 2.36686591 132.84077179 2.36405908 C128.15202802 2.3503799 123.46328437 2.33665957 118.77454078 2.32291877 C79.84971043 2.20889926 40.92486258 2.10237554 2 2 C2 14.21 2 26.42 2 39 C1.34 39 0.68 39 0 39 C0 26.13 0 13.26 0 0 Z " fill="#007336" transform="translate(9,8)"/>
<path d="M0 0 C38.08195573 -0.20346343 76.16376855 -0.36458932 114.24615845 -0.45958797 C118.74223155 -0.47084431 123.23830354 -0.48249321 127.734375 -0.49438477 C129.07700392 -0.49792596 129.07700392 -0.49792596 130.44675666 -0.50153869 C144.9394751 -0.54069944 159.43187221 -0.61165968 173.92440003 -0.69437516 C188.7953818 -0.7785427 203.6661953 -0.82852972 218.53740549 -0.84679645 C227.71376644 -0.85914511 236.88921916 -0.8981429 246.06530052 -0.9712482 C252.35794333 -1.01882717 258.65011673 -1.0332001 264.94292635 -1.0215124 C268.57381807 -1.01574784 272.20312318 -1.0245722 275.8337326 -1.07284927 C279.77267492 -1.12484305 283.70955585 -1.10688038 287.64880371 -1.08229065 C289.36477635 -1.12161401 289.36477635 -1.12161401 291.1154151 -1.16173178 C295.71998733 -1.08396038 298.77433225 -0.97536241 302.45328999 1.95228016 C304.49897481 4.21352063 306.28199438 6.48340725 308 9 C308.43104585 9.60875943 308.8620917 10.21751886 309.30619955 10.84472555 C316.02629041 20.89745015 320.73534252 32.73818416 319 45 C316.09707311 55.88225414 310.46432274 63.64682387 302 71 C301.34 71 300.68 71 300 71 C300 78.26 300 85.52 300 93 C301.65 93.66 303.3 94.32 305 95 C316.12203203 102.13581701 326.70550959 110.9465416 330.375 124.1875 C332.07011531 134.52770342 329.94535687 143.2001309 323.85546875 151.7109375 C320.2447748 156.16539362 316.33592882 160.24907745 312 164 C311.44045624 164.57971054 310.88091248 165.15942108 310.30441284 165.75669861 C301.57978411 173.47871268 290.73696457 171.88021043 279.8046875 171.68359375 C277.88876775 171.67328655 275.97282823 171.66615468 274.05688477 171.66223145 C266.9959536 171.62570696 259.93544593 171.52797748 252.875 171.4375 C229.176875 171.2209375 229.176875 171.2209375 205 171 C205 136.02 205 101.04 205 65 C205.66 65 206.32 65 207 65 C207 99.32 207 133.64 207 169 C229.6153125 169.061875 229.6153125 169.061875 252.6875 169.125 C259.79285278 169.18324951 259.79285278 169.18324951 267.04174805 169.24267578 C271.33796465 169.22948416 271.33796465 169.22948416 275.6341095 169.20309448 C277.52774152 169.19774094 279.4214958 169.21178041 281.31489563 169.24191284 C293.41319955 169.41794496 301.35215219 168.81882656 310.52546692 160.4994812 C311.34206284 159.6746524 312.15865875 158.84982361 313 158 C314.33286417 156.79114917 315.66606994 155.58267455 317 154.375 C324.04129952 146.94931192 327.53529492 139.08110312 327.3125 128.8046875 C326.12229436 118.12259186 318.36865073 109.94920783 310.734375 103.0546875 C308.15614344 100.96149265 308.15614344 100.96149265 305.51416016 99.87768555 C302.59767085 98.48231195 300.3622018 97.21766525 298 95 C296.55138223 90.65717095 296.68809469 86.60126804 296.875 82.0625 C296.85308594 80.90814453 296.83117187 79.75378906 296.80859375 78.56445312 C296.95005524 70.34554029 296.95005524 70.34554029 299.74389648 66.76513672 C301.86328125 64.93359375 301.86328125 64.93359375 303.96606445 63.46264648 C309.05411051 59.80372392 313.68447452 53.13552456 315 47 C316.58578156 32.04079398 312.23634706 20.60413942 303 9 C302.38036031 7.97788862 301.76072062 6.95577724 301.12230396 5.90269279 C299.33055187 3.78535235 298.33303328 3.07758885 295.60481489 2.44197869 C292.45611674 2.22381893 289.35560223 2.20267089 286.1993866 2.24050903 C284.99046653 2.23129893 283.78154646 2.22208883 282.53599244 2.21259964 C279.18311776 2.19308148 275.83224128 2.20041788 272.47948992 2.21906328 C268.86324763 2.23264207 265.24718709 2.21164118 261.63098145 2.19483948 C255.36674924 2.1704675 249.10281561 2.16800569 242.83855247 2.18042374 C233.78154587 2.19834635 224.72483155 2.18322801 215.66784791 2.16004442 C200.97361078 2.12332821 186.27948177 2.11333459 171.58520508 2.12011719 C157.31107913 2.12664869 143.03704976 2.1206128 128.76293945 2.09765625 C127.88308938 2.0962456 127.0032393 2.09483494 126.0967271 2.09338154 C121.68277889 2.08622711 117.26883114 2.0788254 112.85488355 2.07130075 C76.23657305 2.00919579 39.61835738 1.99209339 3 2 C3 10.58 3 19.16 3 28 C2.01 28 1.02 28 0 28 C0 18.76 0 9.52 0 0 Z " fill="#007336" transform="translate(18,14)"/>
<path d="M0 0 C36.57014352 -0.27372791 73.1400791 -0.48610287 109.71103654 -0.61278395 C114.02814388 -0.62779251 118.3452492 -0.64332437 122.66235352 -0.65917969 C123.5218144 -0.66232741 124.38127528 -0.66547514 125.26678043 -0.66871825 C139.18479869 -0.72094028 153.10222242 -0.81555742 167.01988793 -0.92583355 C181.29985134 -1.03803699 195.57950331 -1.10470178 209.85988945 -1.12906194 C218.67268272 -1.14553158 227.4837957 -1.19754914 236.2960717 -1.2949976 C242.33836466 -1.35841273 248.37978862 -1.37760629 254.42239023 -1.36201653 C257.90989364 -1.35432542 261.39446147 -1.36613411 264.88144302 -1.4304657 C285.32305518 -1.75261063 285.32305518 -1.75261063 289.78641772 1.1695776 C292.79550685 4.31209862 293.96445964 7.86499834 295 12 C295.61299114 13.52571324 296.23516786 15.04784695 296.875 16.5625 C300.17898478 27.9314911 299.40767074 38.32526349 293.70703125 48.69921875 C292 51 292 51 290.29614258 52.2487793 C286.70457382 55.05210022 285.18620748 56.99599404 284.33959961 61.56079102 C284.00320698 65.85110489 284.02824691 70.137095 284.0625 74.4375 C284.04937697 75.94729632 284.03313008 77.45706891 284.01367188 78.96679688 C283.97302087 82.64495223 283.97489932 86.32163771 284 90 C284.93336182 90.29189209 285.86672363 90.58378418 286.82836914 90.88452148 C297.05756279 94.48218031 304.48607595 104.21902817 309.9375 113.1875 C311.87151013 120.1271834 312.55903943 128.50091348 309.5625 135.25 C306.43361609 140.36999185 302.3884739 144.93637949 298 149 C297.3278949 149.65504517 296.65578979 150.31009033 295.96331787 150.98498535 C287.23399679 158.48540164 279.33558513 158.05549612 268.42578125 157.78125 C266.84845242 157.76946107 265.2710921 157.76131608 263.69372559 157.75683594 C257.89950082 157.71520045 252.10594974 157.60350967 246.3125 157.5 C233.339375 157.335 220.36625 157.17 207 157 C207 126.31 207 95.62 207 64 C207.99 64 208.98 64 210 64 C210 93.7 210 123.4 210 154 C222.49875 154 234.9975 154 247.875 154 C251.80390137 154.020625 255.73280273 154.04125 259.78076172 154.0625 C263.33990042 154.04261828 263.33990042 154.04261828 266.8989563 154.01220703 C268.46933987 154.00380195 270.03985765 154.010887 271.61013794 154.03076172 C280.95731754 154.13683296 287.91171867 153.90607459 295.06057739 147.09936523 C295.70058685 146.40657471 296.34059631 145.71378418 297 145 C297.69044403 144.30519531 298.38088806 143.61039063 299.09225464 142.89453125 C304.2004255 137.64513958 308.08659302 131.40889454 308.4375 123.9375 C307.38241729 114.44175557 302.88620403 106.77539732 295.390625 100.69433594 C291.14627737 97.52302439 286.74490675 94.37245338 282 92 C281.80103548 87.01976491 281.65652696 82.04187955 281.56054688 77.05859375 C281.52051152 75.36677727 281.46606166 73.6752342 281.39648438 71.984375 C280.8311998 57.88551264 280.8311998 57.88551264 283.73071289 53.20800781 C285.87890625 51.109375 285.87890625 51.109375 288.02954102 49.51464844 C292.16147084 46.33852496 293.98503677 40.99023589 295 36 C296.11721155 25.02934892 293.3468366 14.48184545 286.953125 5.48828125 C286 4 286 4 286 2 C192.61 2 99.22 2 3 2 C3 5.96 3 9.92 3 14 C2.01 13.67 1.02 13.34 0 13 C0 8.71 0 4.42 0 0 Z " fill="#007336" transform="translate(25,21)"/>
<path d="M0 0 C4.43727178 -0.11756758 8.87413528 -0.18770716 13.3125 -0.25 C14.55580078 -0.28351562 15.79910156 -0.31703125 17.08007812 -0.3515625 C27.43251024 -0.46024945 37.00155366 1.01651047 44.75 8.4296875 C46.77310966 10.97121901 47.13409569 12.78170335 47 16 C45.34608341 20.26536384 42.95658326 23.533661 40 27 C40.5775 27.2475 41.155 27.495 41.75 27.75 C45.00290925 29.55717181 47.43172527 31.1684659 48.578125 34.86328125 C49.16250279 38.23615742 49.20478656 40.44963611 48 43.6875 C42.8665159 49.62309099 36.73281029 52.74736364 29 54 C19.35284043 54.6852234 9.59608053 54.03541524 0 53 C0.16233124 52.43325562 0.32466248 51.86651123 0.49191284 51.28259277 C1.01449664 48.93487354 1.12693936 46.8808564 1.12939453 44.47851562 C1.13254669 43.59079468 1.13569885 42.70307373 1.13894653 41.78845215 C1.1369223 40.83732544 1.13489807 39.88619873 1.1328125 38.90625 C1.13376923 37.92257446 1.13472595 36.93889893 1.13571167 35.92541504 C1.13639156 33.84757422 1.13455056 31.76973126 1.13037109 29.69189453 C1.12502019 26.51199573 1.13032255 23.33223816 1.13671875 20.15234375 C1.13605793 18.13281219 1.1347767 16.11328071 1.1328125 14.09375 C1.13483673 13.14262329 1.13686096 12.19149658 1.13894653 11.21154785 C1.13579437 10.3238269 1.13264221 9.43610596 1.12939453 8.52148438 C1.12859894 7.74301147 1.12780334 6.96453857 1.12698364 6.16247559 C0.99952084 3.99184018 0.59751454 2.08609271 0 0 Z M10 4 C10 10.27 10 16.54 10 23 C13.75119675 23.13482736 17.49756297 23.23404403 21.25 23.3125 C22.84521484 23.3753418 22.84521484 23.3753418 24.47265625 23.43945312 C30.62048386 23.69614572 30.62048386 23.69614572 35.69921875 20.66796875 C37.30550262 17.37339852 37.67825771 15.61737448 37 12 C33.17063241 7.01021798 28.51126886 4.99035788 22.5625 3.3125 C16.11066989 2.46535157 16.11066989 2.46535157 10 4 Z M10 26 C9.91273777 27.78071246 9.89300959 29.5648314 9.90234375 31.34765625 C9.90556641 32.42724609 9.90878906 33.50683594 9.91210938 34.61914062 C9.92048828 35.75544922 9.92886719 36.89175781 9.9375 38.0625 C9.94201172 39.20267578 9.94652344 40.34285156 9.95117188 41.51757812 C9.96300253 44.34510351 9.9794859 47.1725264 10 50 C14.89625662 52.44812831 21.60709812 51.01943096 26.75390625 49.76171875 C31.19836706 48.25446682 35.67656685 46.10988225 38.22265625 42.05078125 C39.49856601 38.68468767 38.96069277 36.42246798 38 33 C33.26269669 27.36645011 27.07832011 26.14954815 20 25 C14.62229912 24.25142078 14.62229912 24.25142078 10 26 Z " fill="#007336" transform="translate(556,41)"/>
<path d="M0 0 C2.81883237 0.0031675 5.63661774 -0.02044577 8.45532227 -0.0456543 C23.94898513 -0.10042966 39.22494562 1.3322603 54.07446289 6.00317383 C54.89414551 6.25663574 55.71382813 6.51009766 56.55834961 6.77124023 C68.99177135 10.78722823 80.22108198 16.42240585 89.88696289 25.31567383 C90.72743164 26.06461914 91.56790039 26.81356445 92.43383789 27.58520508 C103.35102494 37.82420323 111.34062968 50.66899321 112.22680664 65.86645508 C112.80583671 83.98078077 109.21842531 101.5075447 96.88696289 115.31567383 C96.31461914 115.99243164 95.74227539 116.66918945 95.15258789 117.36645508 C81.42141479 132.47661351 59.82429369 137.45017284 40.2019043 138.45288086 C26.24725362 139.01050693 13.33483202 138.13687891 -0.11303711 134.31567383 C-0.88905273 134.0960498 -1.66506836 133.87642578 -2.46459961 133.65014648 C-21.03220382 128.23842521 -38.11911169 119.94390164 -48.14038086 102.53051758 C-51.07947272 96.15119837 -50.37344359 89.18268918 -50.11303711 82.31567383 C-49.45303711 82.31567383 -48.79303711 82.31567383 -48.11303711 82.31567383 C-48.02666992 83.2824707 -47.94030273 84.24926758 -47.85131836 85.24536133 C-46.56634003 97.15204129 -43.83039184 105.72435977 -34.80444336 114.15551758 C-12.36985867 132.16179527 19.00720607 137.08121967 46.85644531 134.34912109 C67.30248441 132.04153468 84.24361538 124.97116455 97.69946289 109.00317383 C106.38889582 97.26014301 108.40687416 83.52630037 108.88696289 69.31567383 C108.9449707 67.93895508 108.9449707 67.93895508 109.00415039 66.53442383 C108.76184397 55.04217648 101.42168988 42.71413781 93.88696289 34.31567383 C93.25532227 33.59250977 92.62368164 32.8693457 91.97290039 32.12426758 C74.0560511 12.87179862 44.43634038 4.51436508 18.88696289 3.31567383 C-0.67799429 2.62674732 -19.71530495 3.46905396 -39.11303711 6.31567383 C-39.89404785 6.42733887 -40.67505859 6.53900391 -41.47973633 6.65405273 C-45.03186634 7.16475797 -48.57632103 7.70712956 -52.11303711 8.31567383 C-52.11303711 7.32567383 -52.11303711 6.33567383 -52.11303711 5.31567383 C-34.76804477 1.47828614 -17.759009 -0.04153974 0 0 Z " fill="#007336" transform="translate(63.113037109375,56.684326171875)"/>
<path d="M0 0 C28.42857143 0 28.42857143 0 36 6.625 C39.11229487 10.32085016 39.45979269 12.88020693 39.4140625 17.61328125 C38.69214026 21.77455003 36.16365653 24.35103814 33 27 C31.35272302 28.03162801 29.6893295 29.03878015 28 30 C29.61894369 33.12817384 31.24617411 36.25196193 32.875 39.375 C33.33519531 40.26445313 33.79539062 41.15390625 34.26953125 42.0703125 C34.71425781 42.92109375 35.15898438 43.771875 35.6171875 44.6484375 C36.02565918 45.43395996 36.43413086 46.21948242 36.85498047 47.02880859 C37.96812385 49.13896866 37.96812385 49.13896866 40 51 C40 51.99 40 52.98 40 54 C36.04 54 32.08 54 28 54 C28 52.02 28 50.04 28 48 C27.20954817 45.06983059 25.92518619 42.42486518 24.625 39.6875 C24.32722656 38.95982422 24.02945313 38.23214844 23.72265625 37.48242188 C22.65800621 35.03347801 22.65800621 35.03347801 20 32 C16.7 31.67 13.4 31.34 10 31 C10.33 38.59 10.66 46.18 11 54 C7.37 54 3.74 54 0 54 C0 36.18 0 18.36 0 0 Z M10 5 C9.91299658 6.63472882 9.89298937 8.27314055 9.90234375 9.91015625 C9.90556641 10.89951172 9.90878906 11.88886719 9.91210938 12.90820312 C9.92048828 13.94912109 9.92886719 14.99003906 9.9375 16.0625 C9.94201172 17.10728516 9.94652344 18.15207031 9.95117188 19.22851562 C9.96300087 21.8190666 9.97948311 24.40950559 10 27 C17.45261405 27.17226237 23.04821591 26.22889819 29.0625 21.6875 C31.17780468 19.13406405 31.17780468 19.13406405 31.625 16.0625 C30.8015874 12.02777827 29.19423361 9.5065861 26 7 C22.12838156 5.09977551 13.58913978 1.41086022 10 5 Z " fill="#007336" transform="translate(616,41)"/>
<path d="M0 0 C9.9 0 19.8 0 30 0 C30 2.31 30 4.62 30 7 C22.41 7 14.82 7 7 7 C6.67 10.3 6.34 13.6 6 17 C5.6988978 18.67278999 5.38621608 20.34478822 5 22 C5.7734375 21.95359375 6.546875 21.9071875 7.34375 21.859375 C14.15450005 21.62335891 19.4414837 21.79251196 25 26 C29.62971891 30.43295585 31.15802369 34.33771045 31.3125 40.6875 C31.23759627 46.33251741 30.58614768 50.53966674 27 55 C21.03137236 60.4882552 16.33688008 62.19097168 8.25 62.25 C7.5590625 62.270625 6.868125 62.29125 6.15625 62.3125 C1.05147958 62.35088173 -2.42946746 61.27330153 -7 59 C-6.505 56.03 -6.505 56.03 -6 53 C-3.23847559 51.93787523 -2.1054288 51.96405836 0.75 52.9375 C5.96669997 54.64295961 10.13844869 54.66734858 15.3125 52.8125 C18.44063702 50.70282619 19.62345599 49.5178347 21 46 C21.67365921 41.42577081 21.64246689 38.11836829 19.3125 34.0625 C14.60575008 29.86458791 9.71266942 29.63437177 3.6875 29.375 C1.150625 29.25125 -1.38625 29.1275 -4 29 C-2.68 19.43 -1.36 9.86 0 0 Z " fill="#007336" transform="translate(460,39)"/>
<path d="M0 0 C4.43727178 -0.11756758 8.87413528 -0.18770716 13.3125 -0.25 C14.55580078 -0.28351562 15.79910156 -0.31703125 17.08007812 -0.3515625 C28.63558463 -0.47288015 38.44532332 1.87002358 47 10 C51.79021062 16.05079236 53.48115153 21.77788478 53.3203125 29.40625 C52.55294122 35.62008573 49.46645843 41.65107995 45 46 C34.41966804 53.41179121 26.27500839 54.29184766 13.5625 54.125 C12.25861328 54.11597656 10.95472656 54.10695312 9.61132812 54.09765625 C6.40736168 54.07418397 3.20377736 54.04134727 0 54 C0.24339111 53.06994141 0.24339111 53.06994141 0.49169922 52.12109375 C1.20199785 47.75968277 1.14250939 43.47424728 1.1328125 39.0625 C1.13376923 38.10480713 1.13472595 37.14711426 1.13571167 36.16040039 C1.1363908 34.13981053 1.13455517 32.11921846 1.13037109 30.09863281 C1.1250191 27.01101772 1.13032516 23.92354809 1.13671875 20.8359375 C1.13605792 18.86979135 1.13477666 16.90364528 1.1328125 14.9375 C1.13483673 14.01654541 1.13686096 13.09559082 1.13894653 12.14672852 C1.12371921 7.97103781 1.06513126 4.07013416 0 0 Z M9 3 C9 18.84 9 34.68 9 51 C21.71523173 51 29.75109032 50.45675769 39 42 C44.03066291 36.57217949 45.49984692 31.86232372 45.3046875 24.5546875 C44.45222433 17.40711165 40.52337662 12.90952572 35.0859375 8.47265625 C26.93559275 2.71857391 18.98070672 3 9 3 Z " fill="#007336" transform="translate(690,41)"/>
<path d="M0 0 C4.02898946 3.86440655 7.53262084 7.76732445 10.5 12.5 C11.04785156 13.35980469 11.59570312 14.21960938 12.16015625 15.10546875 C19.52220921 28.00211471 18.39769018 42.37954503 14.75390625 56.36328125 C10.5157966 69.68036357 1.80542743 78.25885485 -10.15625 84.99609375 C-20.14170276 89.94476666 -31.42298693 91.9596579 -42.5 92.5 C-43.65628906 92.56445312 -44.81257813 92.62890625 -46.00390625 92.6953125 C-65.88628783 93.28763767 -88.70681689 88.11403586 -104.5 75.5 C-110.40154623 69.87385926 -115.52830505 63.8565766 -116.5 55.5 C-116.5709976 52.49781577 -116.55886805 49.50227032 -116.5 46.5 C-115.51 46.5 -114.52 46.5 -113.5 46.5 C-113.47873047 47.51707031 -113.47873047 47.51707031 -113.45703125 48.5546875 C-112.97959527 57.87114098 -110.44634891 64.96758335 -103.75 71.625 C-84.47836519 87.34074832 -58.05662104 90.64059374 -34.125 88.26416016 C-20.37869444 86.47954098 -5.83419809 81.08451877 3.37890625 70.30078125 C12.25867084 57.54863812 14.93315134 43.83697037 13.5 28.5 C11.09842984 16.2185526 2.38700007 5.77730925 -7.5 -1.5 C-40.9522937 -23.94108814 -83.6009152 -19.60388821 -121.5 -14.5 C-121.5 -15.49 -121.5 -16.48 -121.5 -17.5 C-118.54222565 -17.98283996 -115.58385071 -18.46133765 -112.625 -18.9375 C-111.80257812 -19.07220703 -110.98015625 -19.20691406 -110.1328125 -19.34570312 C-73.95144073 -25.14037595 -29.2525374 -25.29125629 0 0 Z " fill="#007336" transform="translate(143.5,90.5)"/>
<path d="M0 0 C2.22265625 1.38671875 2.22265625 1.38671875 4.22265625 4.38671875 C3.89265625 5.04671875 3.56265625 5.70671875 3.22265625 6.38671875 C-0.05785251 5.34655743 -3.18506493 4.20789367 -6.33984375 2.82421875 C-13.80723087 -0.29850677 -20.87920298 -0.50262249 -28.5 2.28515625 C-33.86812474 4.88174489 -38.37624796 8.6565023 -40.77734375 14.19921875 C-42.75725736 20.8460716 -42.71615144 28.09865333 -39.94140625 34.50390625 C-36.23129661 40.50482184 -30.64056067 44.10411528 -23.93359375 45.953125 C-16.19921552 47.50840758 -10.51344267 45.45349688 -3.83984375 41.76171875 C-0.72507435 38.17501459 -0.98415972 35.07454738 -0.77734375 30.38671875 C-6.71734375 30.38671875 -12.65734375 30.38671875 -18.77734375 30.38671875 C-18.77734375 29.39671875 -18.77734375 28.40671875 -18.77734375 27.38671875 C-10.52734375 27.38671875 -2.27734375 27.38671875 6.22265625 27.38671875 C7.29766819 41.00353671 7.29766819 41.00353671 4.46484375 44.6484375 C-4.90536356 50.9534753 -15.86510036 51.45549871 -26.77734375 50.38671875 C-35.26926475 48.47059299 -42.94858427 43.58814047 -47.71484375 36.26171875 C-51.35078632 30.12375468 -51.82987705 23.09411178 -50.28125 16.16796875 C-47.19625529 7.10470747 -41.11811804 2.55083464 -32.77734375 -1.61328125 C-22.21111502 -5.91912967 -10.1650695 -4.65607722 0 0 Z " fill="#007336" transform="translate(804.77734375,44.61328125)"/>
<path d="M0 0 C8.45147951 8.26366886 13.7034987 17.63994788 14 29.5 C13.80523816 41.36276673 10.2789526 52.35564508 2.0625 61.1875 C-10.47396015 72.65348443 -28.54880726 74.61268271 -44.84960938 73.92041016 C-59.06964398 72.88390387 -74.73308048 68.0851123 -85.4375 58.3125 C-91.12526712 51.72902152 -92.72996558 45.29383293 -92.1875 36.75 C-91.1975 37.08 -90.2075 37.41 -89.1875 37.75 C-89.11015625 38.89275391 -89.11015625 38.89275391 -89.03125 40.05859375 C-88.26029781 47.07601081 -86.82231445 51.69327914 -81.76953125 56.71875 C-65.65926175 69.39248697 -45.92659947 71.10033884 -26.1875 69.75 C-14.52543093 68.30714687 -4.34857828 63.24069041 3.15625 54.12109375 C9.82653747 44.57188504 11.37796751 33.17791282 9.8125 21.75 C8.34923546 17.34547554 6.35459881 13.62106174 3.8125 9.75 C3.42964844 9.14800781 3.04679687 8.54601562 2.65234375 7.92578125 C-6.73881777 -4.89870814 -24.3518442 -9.61938285 -39.1875 -12.25 C-58.18950372 -15.05437781 -77.2943322 -12.80349788 -96.1875 -10.25 C-96.1875 -11.24 -96.1875 -12.23 -96.1875 -13.25 C-63.7998528 -19.86133017 -27.79274688 -19.61840956 0 0 Z " fill="#007336" transform="translate(133.1875,97.25)"/>
<path d="M0 0 C11.55 0 23.1 0 35 0 C35 0.99 35 1.98 35 3 C26.75 3 18.5 3 10 3 C10 11.25 10 19.5 10 28 C15.61 28 21.22 28 27 28 C27 28.99 27 29.98 27 31 C21.39 31 15.78 31 10 31 C10 37.6 10 44.2 10 51 C18.91 51 27.82 51 37 51 C37 51.99 37 52.98 37 54 C24.79 54 12.58 54 0 54 C0.33 52.35 0.66 50.7 1 49 C1.08552283 47.49269346 1.12780462 45.98238623 1.12939453 44.47265625 C1.13254669 43.60825928 1.13569885 42.7438623 1.13894653 41.85327148 C1.1369223 40.93231689 1.13489807 40.0113623 1.1328125 39.0625 C1.13376923 38.10480713 1.13472595 37.14711426 1.13571167 36.16040039 C1.1363908 34.13981053 1.13455517 32.11921846 1.13037109 30.09863281 C1.1250191 27.01101772 1.13032516 23.92354809 1.13671875 20.8359375 C1.13605792 18.86979135 1.13477666 16.90364528 1.1328125 14.9375 C1.13483673 14.01654541 1.13686096 13.09559082 1.13894653 12.14672852 C1.13579437 11.28233154 1.13264221 10.41793457 1.12939453 9.52734375 C1.12859894 8.77187256 1.12780334 8.01640137 1.12698364 7.23803711 C1.02512887 4.51787899 1.02512887 4.51787899 0 0 Z " fill="#007336" transform="translate(823,41)"/>
<path d="M0 0 C0.99 0 1.98 0 3 0 C3 61.71 3 123.42 3 187 C2.01 187 1.02 187 0 187 C0 125.29 0 63.58 0 0 Z " fill="#6D6E71" transform="translate(403,11)"/>
<path d="M0 0 C3.63 0 7.26 0 11 0 C11 17.82 11 35.64 11 54 C7.37 54 3.74 54 0 54 C0 36.18 0 18.36 0 0 Z " fill="#007336" transform="translate(668,41)"/>
<path d="M0 0 C6 0 6 0 7.56738281 1.3293457 C7.94217773 1.93866943 8.31697266 2.54799316 8.703125 3.17578125 C9.1259375 3.83900391 9.54875 4.50222656 9.984375 5.18554688 C10.40203125 5.88744141 10.8196875 6.58933594 11.25 7.3125 C11.8996875 8.34793945 11.8996875 8.34793945 12.5625 9.40429688 C13.36809053 10.69100397 14.16500399 11.98321483 14.95019531 13.2824707 C15.92674956 14.88015888 16.96132248 16.44198372 18 18 C18.33 12.06 18.66 6.12 19 0 C20.65 0 22.3 0 24 0 C24 9.9 24 19.8 24 30 C22.35 30 20.7 30 19 30 C17.19140625 28.1640625 17.19140625 28.1640625 15.5625 25.625 C14.9746875 24.72265625 14.386875 23.8203125 13.78125 22.890625 C11.1466549 18.61518559 8.53832545 14.33372637 6 10 C5.67 16.6 5.34 23.2 5 30 C3.35 30 1.7 30 0 30 C0 20.1 0 10.2 0 0 Z " fill="#383839" transform="translate(743,141)"/>
<path d="M0 0 C3.34124522 1.46179478 5.56503461 3.30872246 8 6 C7.67 6.99 7.34 7.98 7 9 C4.08747225 8.05173515 1.26955023 7.12803636 -1.5 5.8125 C-4.77551275 4.74795836 -6.7118428 5.02054892 -10 6 C-12.25726011 7.89121793 -13.68646424 9.37292849 -15 12 C-15.37340899 16.94766914 -15.22237243 20.11092983 -12 24 C-9.06812987 25.74327413 -7.35094284 26.0143242 -3.9375 25.875 C-0.45764491 25.09206969 -0.45764491 25.09206969 3 21 C-0.96 20.67 -4.92 20.34 -9 20 C-9 18.68 -9 17.36 -9 16 C-2.73 16 3.54 16 10 16 C8.93447307 23.45868849 8.80731527 24.19268473 4 29 C-0.68229763 31.90900193 -5.66675277 31.72417501 -11 31 C-15.45349707 29.20255254 -17.56645365 26.75520977 -19.9375 22.625 C-21.55064317 17.12133508 -21.7007533 13.0673401 -19.375 7.8125 C-14.90535369 -0.15244065 -8.53526265 -1.09459857 0 0 Z " fill="#383839" transform="translate(916,140)"/>
<path d="M0 0 C4.004793 2.0023965 6.6587028 4.17998877 9 8 C10.53377179 12.60131537 10.90474832 17.34779492 9.31640625 22.00390625 C7.03800803 26.38107794 4.45546591 28.97478822 0 31 C-5.27642381 31.76276171 -9.55609111 31.65632222 -14.4375 29.4375 C-18.80497676 25.28307089 -21.17957546 21.56510093 -21.5625 15.5625 C-21.26891792 9.42873159 -18.24585197 5.11374303 -13.875 1 C-9.26168861 -0.60463005 -4.82241954 -0.64440555 0 0 Z M-13 7 C-15.40777323 9.88932788 -15.96115399 11.69478136 -16.4375 15.4375 C-15.91284546 19.70968693 -14.79623825 21.75031771 -12 25 C-9.06466089 26.77665262 -7.4270449 27.01779354 -4 26.875 C-0.51610944 25.85886525 1.40718838 24.51873129 4 22 C5.23917206 18.28248383 5.54318961 14.8626817 5 11 C2.66291686 7.01830279 0.43244989 5.25017817 -4 4 C-7.81307353 4 -9.74828878 5.03542447 -13 7 Z " fill="#383839" transform="translate(873,140)"/>
<path d="M0 0 C4.004793 2.0023965 6.6587028 4.17998877 9 8 C10.53377179 12.60131537 10.90474832 17.34779492 9.31640625 22.00390625 C7.03800803 26.38107794 4.45546591 28.97478822 0 31 C-5.27642381 31.76276171 -9.55609111 31.65632222 -14.4375 29.4375 C-18.80497676 25.28307089 -21.17957546 21.56510093 -21.5625 15.5625 C-21.26891792 9.42873159 -18.24585197 5.11374303 -13.875 1 C-9.26168861 -0.60463005 -4.82241954 -0.64440555 0 0 Z M-13 7 C-15.40777323 9.88932788 -15.96115399 11.69478136 -16.4375 15.4375 C-15.91284546 19.70968693 -14.79623825 21.75031771 -12 25 C-9.06466089 26.77665262 -7.4270449 27.01779354 -4 26.875 C-0.51610944 25.85886525 1.40718838 24.51873129 4 22 C5.23917206 18.28248383 5.54318961 14.8626817 5 11 C2.66291686 7.01830279 0.43244989 5.25017817 -4 4 C-7.81307353 4 -9.74828878 5.03542447 -13 7 Z " fill="#383839" transform="translate(802,140)"/>
<path d="M0 0 C2.51625 -0.0825 5.0325 -0.165 7.625 -0.25 C8.79603271 -0.30462402 8.79603271 -0.30462402 9.99072266 -0.36035156 C15.10508486 -0.44085181 18.00483692 0.5554899 22 4 C26.05630398 9.22259857 25.77397544 14.65340142 25 21 C22.82816596 25.58498297 20.54890966 27.84915685 16 30 C13.12508918 30.21118346 10.54232902 30.28622356 7.6875 30.1875 C5.150625 30.125625 2.61375 30.06375 0 30 C0 20.1 0 10.2 0 0 Z M5 4 C5 11.26 5 18.52 5 26 C12.21730725 26.1721811 12.21730725 26.1721811 18 23 C20.46720886 19.06788587 21.35899294 16.25784385 20.4375 11.75 C19.60939522 9.10722116 19.06399644 8.06399644 17.0625 6.0625 C12.57107868 3.7487375 10.52847034 4 5 4 Z " fill="#383839" transform="translate(451,141)"/>
<path d="M0 0 C2.31 0 4.62 0 7 0 C7 4.29 7 8.58 7 13 C9.24609375 12.90234375 11.4921875 12.8046875 13.73828125 12.70703125 C16 13 16 13 17.75 14.0625 C19.65026898 17.00791692 19.52856071 19.72262349 19.6875 23.1875 C19.78611328 25.09595703 19.78611328 25.09595703 19.88671875 27.04296875 C19.92410156 28.01878906 19.96148438 28.99460937 20 30 C18.02 30 16.04 30 14 30 C14.03480469 29.15695313 14.06960938 28.31390625 14.10546875 27.4453125 C14.13253906 26.34960938 14.15960937 25.25390625 14.1875 24.125 C14.22230469 23.03445312 14.25710938 21.94390625 14.29296875 20.8203125 C14.14794922 19.42425781 14.14794922 19.42425781 14 18 C13.01 17.34 12.02 16.68 11 16 C9.68 16.33 8.36 16.66 7 17 C7 21.29 7 25.58 7 30 C4.69 30 2.38 30 0 30 C0.33 25.05 0.66 20.1 1 15 C-0.65 15 -2.3 15 -4 15 C-3.67 19.95 -3.34 24.9 -3 30 C-5.31 30 -7.62 30 -10 30 C-10 22.74 -10 15.48 -10 8 C-7.69 8 -5.38 8 -3 8 C-3.33 9.65 -3.66 11.3 -4 13 C-2.35 13 -0.7 13 1 13 C0.67 8.71 0.34 4.42 0 0 Z " fill="#007336" transform="translate(510,27)"/>
<path d="M0 0 C1.65 0 3.3 0 5 0 C5 4.29 5 8.58 5 13 C8.96 13 12.92 13 17 13 C17 8.71 17 4.42 17 0 C18.65 0 20.3 0 22 0 C22 9.9 22 19.8 22 30 C20.35 30 18.7 30 17 30 C17 25.71 17 21.42 17 17 C13.04 17 9.08 17 5 17 C5 21.29 5 25.58 5 30 C3.35 30 1.7 30 0 30 C0 20.1 0 10.2 0 0 Z " fill="#383839" transform="translate(707,141)"/>
<path d="M0 0 C2.625 -0.1875 2.625 -0.1875 5 0 C9.74077225 9.72186013 13.35099282 19.83118026 17 30 C15.02 30 13.04 30 11 30 C10.01 27.03 9.02 24.06 8 21 C4.37 21 0.74 21 -3 21 C-3.99 23.97 -4.98 26.94 -6 30 C-7.98 30 -9.96 30 -12 30 C-10.61750747 26.20785727 -9.22984397 22.4176516 -7.83740234 18.62915039 C-7.36462887 17.34060775 -6.89326109 16.05154844 -6.42333984 14.76196289 C-5.74688312 12.90635485 -5.06491524 11.05275881 -4.3828125 9.19921875 C-3.97434082 8.08377686 -3.56586914 6.96833496 -3.14501953 5.8190918 C-2 3 -2 3 0 0 Z M2 7 C1.01 10.3 0.02 13.6 -1 17 C1.31 17 3.62 17 6 17 C5.01 13.7 4.02 10.4 3 7 C2.67 7 2.34 7 2 7 Z " fill="#383839" transform="translate(559,141)"/>
<path d="M0 0 C2.625 -0.1875 2.625 -0.1875 5 0 C9.74077225 9.72186013 13.35099282 19.83118026 17 30 C15.02 30 13.04 30 11 30 C10.01 27.03 9.02 24.06 8 21 C4.37 21 0.74 21 -3 21 C-3.99 23.97 -4.98 26.94 -6 30 C-7.98 30 -9.96 30 -12 30 C-10.61750747 26.20785727 -9.22984397 22.4176516 -7.83740234 18.62915039 C-7.36462887 17.34060775 -6.89326109 16.05154844 -6.42333984 14.76196289 C-5.74688312 12.90635485 -5.06491524 11.05275881 -4.3828125 9.19921875 C-3.97434082 8.08377686 -3.56586914 6.96833496 -3.14501953 5.8190918 C-2 3 -2 3 0 0 Z M2 7 C1.01 10.3 0.02 13.6 -1 17 C1.31 17 3.62 17 6 17 C5.01 13.7 4.02 10.4 3 7 C2.67 7 2.34 7 2 7 Z " fill="#383839" transform="translate(497,141)"/>
<path d="M0 0 C2.25673814 1.48411104 4.11772087 3.26225212 6.0234375 5.16796875 C5.6934375 6.15796875 5.3634375 7.14796875 5.0234375 8.16796875 C2.11090975 7.2197039 -0.70701227 6.29600511 -3.4765625 4.98046875 C-6.75207525 3.91592711 -8.6884053 4.18851767 -11.9765625 5.16796875 C-14.23382261 7.05918668 -15.66302674 8.54089724 -16.9765625 11.16796875 C-17.34997149 16.11563789 -17.19893493 19.27889858 -13.9765625 23.16796875 C-10.97287915 24.95394264 -9.34722235 25.19762154 -5.8515625 24.91796875 C-2.80713042 24.29097109 -2.80713042 24.29097109 0.0234375 22.16796875 C3.2109375 22.04296875 3.2109375 22.04296875 6.0234375 22.16796875 C4.49041775 26.46042404 2.0557287 28.18719412 -1.9765625 30.16796875 C-7.33743993 31.0479923 -12.29672898 31.10612633 -16.9765625 28.10546875 C-21.44045018 24.29457183 -22.74974809 19.95413225 -23.4765625 14.23046875 C-23.23818748 8.39595631 -19.98354324 4.0568918 -15.8515625 0.16796875 C-10.85007856 -1.57167784 -4.9767217 -2.09494411 0 0 Z " fill="#383839" transform="translate(687.9765625,140.83203125)"/>
<path d="M0 0 C2.5 1.75 2.5 1.75 4 4 C4 5.32 4 6.64 4 8 C1.625 8.1875 1.625 8.1875 -1 8 C-1.66 7.01 -2.32 6.02 -3 5 C-4.32 5 -5.64 5 -7 5 C-7 7.31 -7 9.62 -7 12 C-6.38511719 12.17015625 -5.77023437 12.3403125 -5.13671875 12.515625 C1.37209302 14.46723044 1.37209302 14.46723044 4.0625 16.75 C5.45607855 20.09458851 5.50328088 22.41412371 5 26 C3.0625 28.9375 3.0625 28.9375 0 31 C-4.40410826 31.89336004 -7.77440941 31.80709624 -11.5625 29.3125 C-13.23301458 26.62515045 -13.34538204 25.10843835 -13 22 C-8.35842294 22.62724014 -8.35842294 22.62724014 -6.4375 24.625 C-5.963125 25.07875 -5.48875 25.5325 -5 26 C-2.83700789 25.77242269 -2.83700789 25.77242269 -1 25 C-1 23.35 -1 21.7 -1 20 C-1.61488281 19.69707031 -2.22976563 19.39414063 -2.86328125 19.08203125 C-6.41563518 17.24069947 -9.42280183 15.61018092 -12.1875 12.6875 C-13.34410137 8.86181856 -12.70190297 5.60262637 -11 2 C-7.32316242 -0.45122505 -4.27282747 -0.70497355 0 0 Z " fill="#383839" transform="translate(1002,140)"/>
<path d="M0 0 C14 0 14 0 17.375 2 C19.63651355 6.17510194 19.67423269 8.28037115 19 13 C17.12984906 15.43119623 15.71861655 16.64069173 13 18 C10.3276379 18.13415472 7.67749512 18.04318541 5 18 C5 21.96 5 25.92 5 30 C3.35 30 1.7 30 0 30 C0 20.1 0 10.2 0 0 Z M5 4 C5 7.3 5 10.6 5 14 C6.299375 13.855625 7.59875 13.71125 8.9375 13.5625 C9.66839844 13.48128906 10.39929687 13.40007812 11.15234375 13.31640625 C13.01140229 13.18113386 13.01140229 13.18113386 14 12 C14.04080783 10.00041636 14.04254356 7.99954746 14 6 C10.53785351 3.94835763 9.40610765 4 5 4 Z " fill="#383839" transform="translate(1098,141)"/>
<path d="M0 0 C5.61 0 11.22 0 17 0 C17 1.32 17 2.64 17 4 C13.04 4 9.08 4 5 4 C5 6.97 5 9.94 5 13 C8.96 13 12.92 13 17 13 C17 14.32 17 15.64 17 17 C13.04 17 9.08 17 5 17 C5 19.97 5 22.94 5 26 C8.96 26 12.92 26 17 26 C17 27.32 17 28.64 17 30 C11.39 30 5.78 30 0 30 C0 20.1 0 10.2 0 0 Z " fill="#383839" transform="translate(959,141)"/>
<path d="M0 0 C5.61 0 11.22 0 17 0 C17 1.32 17 2.64 17 4 C13.04 4 9.08 4 5 4 C5 6.97 5 9.94 5 13 C8.96 13 12.92 13 17 13 C17 14.32 17 15.64 17 17 C13.04 17 9.08 17 5 17 C5 19.97 5 22.94 5 26 C8.96 26 12.92 26 17 26 C17 27.32 17 28.64 17 30 C11.39 30 5.78 30 0 30 C0 20.1 0 10.2 0 0 Z " fill="#383839" transform="translate(635,141)"/>
<path d="M0 0 C5.28 0 10.56 0 16 0 C16 1.32 16 2.64 16 4 C14.35 4 12.7 4 11 4 C11 12.58 11 21.16 11 30 C9.35 30 7.7 30 6 30 C6 21.42 6 12.84 6 4 C4.02 4 2.04 4 0 4 C0 2.68 0 1.36 0 0 Z " fill="#383839" transform="translate(606,141)"/>
<path d="M0 0 C5.28 0 10.56 0 16 0 C16 1.32 16 2.64 16 4 C14.35 4 12.7 4 11 4 C11 12.58 11 21.16 11 30 C9.35 30 7.7 30 6 30 C6 21.42 6 12.84 6 4 C4.02 4 2.04 4 0 4 C0 2.68 0 1.36 0 0 Z " fill="#383839" transform="translate(523,141)"/>
<path d="M0 0 C1.65 0 3.3 0 5 0 C5 8.58 5 17.16 5 26 C8.3 26 11.6 26 15 26 C15 27.32 15 28.64 15 30 C10.05 30 5.1 30 0 30 C0 20.1 0 10.2 0 0 Z " fill="#383839" transform="translate(1070,141)"/>
<path d="M0 0 C1.65 0 3.3 0 5 0 C5 8.58 5 17.16 5 26 C8.3 26 11.6 26 15 26 C15 27.32 15 28.64 15 30 C10.05 30 5.1 30 0 30 C0 20.1 0 10.2 0 0 Z " fill="#383839" transform="translate(1042,141)"/>
<path d="M0 0 C1.65 0 3.3 0 5 0 C5 8.58 5 17.16 5 26 C8.3 26 11.6 26 15 26 C15 27.32 15 28.64 15 30 C10.05 30 5.1 30 0 30 C0 20.1 0 10.2 0 0 Z " fill="#383839" transform="translate(825,141)"/>
<path d="M0 0 C1.65 0 3.3 0 5 0 C5 9.9 5 19.8 5 30 C3.35 30 1.7 30 0 30 C0 20.1 0 10.2 0 0 Z " fill="#383839" transform="translate(939,141)"/>
</svg>
